<svg xmlns="http://www.w3.org/2000/svg" xmlns:xlink="http://www.w3.org/1999/xlink" width="1428" height="649" version="1.1">
<style type="text/css">
.l0{
  fill: #000000;
  stroke: #000000;
  stroke-linecap:round;
  stroke-linejoin:round;
  stroke-width: 0.807282;
}
.l1{
  fill: #00ccee;
  stroke: #00ccee;
  stroke-linecap:round;
  stroke-linejoin:round;
  stroke-width: 0.807282;
}
.l2{
  fill: #4f4f4f; fill-opacity: 0.2;
  stroke: #4f4f4f;
  stroke-linecap:round;
  stroke-linejoin:round;
  stroke-width: 0.807282;
}
.l3{
  fill: #cccccc; fill-opacity: 0.5;
  stroke: #cccccc;
  stroke-linecap:round;
  stroke-linejoin:round;
  stroke-width: 0.807282;
}
.l4{
  fill: #88dd00;
  stroke: #88dd00;
  stroke-linecap:round;
  stroke-linejoin:round;
  stroke-width: 0.807282;
}
.l5{
  fill: #bb2200;
  stroke: #bb2200;
  stroke-linecap:round;
  stroke-linejoin:round;
  stroke-width: 0.807282;
}
.l6{
  fill: #00ccee; fill-opacity: 0.5;
  stroke: #00ccee;
  stroke-linecap:round;
  stroke-linejoin:round;
  stroke-width: 0.807282;
}
.l7{
  fill: #ff0000; fill-opacity: 0.5;
  stroke: #ff0000;
  stroke-linecap:round;
  stroke-linejoin:round;
  stroke-width: 0.807282;
}
.l8{
  fill: #ffff00; fill-opacity: 0.5;
  stroke: #ffff00;
  stroke-linecap:round;
  stroke-linejoin:round;
  stroke-width: 0.807282;
}
.l9{
  fill: #ffffff; fill-opacity: 0.5;
  stroke: #ffffff;
  stroke-linecap:round;
  stroke-linejoin:round;
  stroke-width: 0.807282;
}
.l10{
  fill: #ff00ff;
  stroke: #ff00ff;
  stroke-linecap:round;
  stroke-linejoin:round;
  stroke-width: 0.807282;
}
.l11{
  fill: #00ff00; fill-opacity: 0.5;
  stroke: #00ff00;
  stroke-linecap:round;
  stroke-linejoin:round;
  stroke-width: 0.807282;
}
.l12{
  fill: #0044ff; fill-opacity: 0.5;
  stroke: #0044ff;
  stroke-linecap:round;
  stroke-linejoin:round;
  stroke-width: 0.807282;
}
.l13{
  fill: #aaaa00; fill-opacity: 0.5;
  stroke: #aaaa00;
  stroke-linecap:round;
  stroke-linejoin:round;
  stroke-width: 0.807282;
}
.l14{
  fill: #aaccaa; fill-opacity: 0.2;
  stroke: #aaccaa;
  stroke-linecap:round;
  stroke-linejoin:round;
  stroke-width: 0.807282;
}
.l15{
  fill: #ff7777; fill-opacity: 0.5;
  stroke: #ff7777;
  stroke-linecap:round;
  stroke-linejoin:round;
  stroke-width: 0.807282;
}
.l16{
  fill: #bfff81; fill-opacity: 0.5;
  stroke: #bfff81;
  stroke-linecap:round;
  stroke-linejoin:round;
  stroke-width: 0.807282;
}
.l17{
  fill: #00ffcc; fill-opacity: 0.2;
  stroke: #00ffcc;
  stroke-linecap:round;
  stroke-linejoin:round;
  stroke-width: 0.807282;
}
.l18{
  fill: #ce0097; fill-opacity: 0.5;
  stroke: #ce0097;
  stroke-linecap:round;
  stroke-linejoin:round;
  stroke-width: 0.807282;
}
.l19{
  fill: #d2d46b; fill-opacity: 0.2;
  stroke: #d2d46b;
  stroke-linecap:round;
  stroke-linejoin:round;
  stroke-width: 0.807282;
}
.l20{
  fill: #ef6158; fill-opacity: 0.2;
  stroke: #ef6158;
  stroke-linecap:round;
  stroke-linejoin:round;
  stroke-width: 0.807282;
}
.l21{
  fill: #fdb200; fill-opacity: 0.2;
  stroke: #fdb200;
  stroke-linecap:round;
  stroke-linejoin:round;
  stroke-width: 0.807282;
}
text {font-family: Sans-Serif;}
</style>
<rect class="l0" x="0" y="0" width="1428" height="649"/>
<path class="l4" d="M175.316 312.723L175.316 339.633"/>
<path class="l4" d="M158.871 326.178L172.326 326.178"/>
<path class="l4" d="M182.791 308.238L182.791 315.713"/>
<path class="l4" d="M182.791 336.643L182.791 344.117"/>
<path class="l4" d="M172.326 317.208L172.326 335.148"/>
<path class="l4" d="M175.316 315.713L182.791 315.713"/>
<path class="l4" d="M175.316 336.643L179.801 336.643"/>
<path class="l4" d="M179.801 335.148L182.791 336.643L179.801 338.138L179.801 335.148"/>
<path class="l4" d="M175.316 378.502L175.316 405.411"/>
<path class="l4" d="M158.871 391.956L172.326 391.956"/>
<path class="l4" d="M182.791 374.017L182.791 381.492"/>
<path class="l4" d="M182.791 402.421L182.791 409.896"/>
<path class="l4" d="M172.326 382.987L172.326 400.926"/>
<path class="l4" d="M175.316 381.492L182.791 381.492"/>
<path class="l4" d="M175.316 402.421L179.801 402.421"/>
<path class="l4" d="M179.801 400.926L182.791 402.421L179.801 403.916L179.801 400.926"/>
<path class="l4" d="M294.913 312.723L294.913 339.633"/>
<path class="l4" d="M278.469 326.178L291.923 326.178"/>
<path class="l4" d="M302.388 308.238L302.388 315.713"/>
<path class="l4" d="M302.388 336.643L302.388 344.117"/>
<path class="l4" d="M291.923 317.208L291.923 335.148"/>
<path class="l4" d="M294.913 315.713L302.388 315.713"/>
<path class="l4" d="M294.913 336.643L299.398 336.643"/>
<path class="l4" d="M299.398 335.148L302.388 336.643L299.398 338.138L299.398 335.148"/>
<path class="l4" d="M294.913 378.502L294.913 405.411"/>
<path class="l4" d="M278.469 391.956L291.923 391.956"/>
<path class="l4" d="M302.388 374.017L302.388 381.492"/>
<path class="l4" d="M302.388 402.421L302.388 409.896"/>
<path class="l4" d="M291.923 382.987L291.923 400.926"/>
<path class="l4" d="M294.913 381.492L302.388 381.492"/>
<path class="l4" d="M294.913 402.421L299.398 402.421"/>
<path class="l4" d="M299.398 400.926L302.388 402.421L299.398 403.916L299.398 400.926"/>
<path class="l4" d="M408.531 342.622L408.531 369.532"/>
<path class="l4" d="M392.086 356.077L405.541 356.077"/>
<path class="l4" d="M416.005 338.138L416.005 345.612"/>
<path class="l4" d="M416.005 366.542L416.005 374.017"/>
<path class="l4" d="M405.541 347.107L405.541 365.047"/>
<path class="l4" d="M408.531 345.612L416.005 345.612"/>
<path class="l4" d="M408.531 366.542L413.015 366.542"/>
<path class="l4" d="M413.015 365.047L416.005 366.542L413.015 368.037L413.015 365.047"/>
<path class="l4" d="M241.094 97.4479L241.094 124.357"/>
<path class="l4" d="M248.569 92.963L248.569 100.438"/>
<path class="l4" d="M248.569 121.367L248.569 128.842"/>
<path class="l4" d="M238.104 101.933L238.104 119.872"/>
<path class="l4" d="M241.094 121.367L248.569 121.367"/>
<path class="l4" d="M244.084 100.438L248.569 100.438"/>
<path class="l4" d="M224.65 110.903L232.125 110.903"/>
<path class="l4" d="M244.084 98.9429L241.094 100.438L244.084 101.933L244.084 98.9429"/>
<circle class="l4" cx="235.114" cy="110.903" r="2.98993" style="fill:none;" />
<path class="l4" d="M348.732 97.4479L348.732 124.357"/>
<path class="l4" d="M356.207 92.963L356.207 100.438"/>
<path class="l4" d="M356.207 121.367L356.207 128.842"/>
<path class="l4" d="M345.742 101.933L345.742 119.872"/>
<path class="l4" d="M348.732 121.367L356.207 121.367"/>
<path class="l4" d="M351.722 100.438L356.207 100.438"/>
<path class="l4" d="M332.287 110.903L339.762 110.903"/>
<path class="l4" d="M351.722 98.9429L348.732 100.438L351.722 101.933L351.722 98.9429"/>
<circle class="l4" cx="342.752" cy="110.903" r="2.98993" style="fill:none;" />
<path class="l4" d="M241.094 223.025L241.094 249.935"/>
<path class="l4" d="M248.569 218.54L248.569 226.015"/>
<path class="l4" d="M248.569 246.945L248.569 254.419"/>
<path class="l4" d="M238.104 227.51L238.104 245.45"/>
<path class="l4" d="M241.094 246.945L248.569 246.945"/>
<path class="l4" d="M244.084 226.015L248.569 226.015"/>
<path class="l4" d="M224.65 236.48L232.125 236.48"/>
<path class="l4" d="M244.084 224.52L241.094 226.015L244.084 227.51L244.084 224.52"/>
<circle class="l4" cx="235.114" cy="236.48" r="2.98993" style="fill:none;" />
<path class="l4" d="M348.732 223.025L348.732 249.935"/>
<path class="l4" d="M356.207 218.54L356.207 226.015"/>
<path class="l4" d="M356.207 246.945L356.207 254.419"/>
<path class="l4" d="M345.742 227.51L345.742 245.45"/>
<path class="l4" d="M348.732 246.945L356.207 246.945"/>
<path class="l4" d="M351.722 226.015L356.207 226.015"/>
<path class="l4" d="M332.287 236.48L339.762 236.48"/>
<path class="l4" d="M351.722 224.52L348.732 226.015L351.722 227.51L351.722 224.52"/>
<circle class="l4" cx="342.752" cy="236.48" r="2.98993" style="fill:none;" />
<path class="l4" d="M294.913 169.206L294.913 196.116"/>
<path class="l4" d="M302.388 164.721L302.388 172.196"/>
<path class="l4" d="M302.388 193.126L302.388 200.601"/>
<path class="l4" d="M291.923 173.691L291.923 191.631"/>
<path class="l4" d="M294.913 193.126L302.388 193.126"/>
<path class="l4" d="M297.903 172.196L302.388 172.196"/>
<path class="l4" d="M278.469 182.661L285.943 182.661"/>
<path class="l4" d="M297.903 170.701L294.913 172.196L297.903 173.691L297.903 170.701"/>
<circle class="l4" cx="288.933" cy="182.661" r="2.98993" style="fill:none;" />
<path class="l5" d="M45.2537 580.322L45.0668 580.509L44.88 580.696L44.6931 580.883L44.5062 581.07L44.3194 581.257L44.1325 581.443L43.9456 581.63L43.7587 581.817L43.5719 582.004L43.385 582.191L43.1981 582.378L43.0113 582.565L42.8244 582.751L42.6375 582.938L42.4507 583.125L42.2638 583.312L42.0769 583.499L41.89 583.686L41.7032 583.873L41.5163 584.06L41.3294 584.246L41.1426 584.433L40.9557 584.62L40.7688 584.807L40.5819 584.994L40.3951 585.181L40.2082 585.368L40.0213 585.555L39.8345 585.741L39.6476 585.928L39.4607 586.115L39.2738 586.302L39.2738 586.302L39.0928 586.489L38.9235 586.676L38.7658 586.863L38.6198 587.049L38.4855 587.236L38.3629 587.423L38.2519 587.61L38.1526 587.797L38.065 587.984L37.9891 588.171L37.9249 588.358L37.8723 588.544L37.8314 588.731L37.8022 588.918L37.7847 589.105L37.7789 589.292L37.7847 589.479L37.8022 589.666L37.8314 589.853L37.8723 590.039L37.9249 590.226L37.9891 590.413L38.065 590.6L38.1526 590.787L38.2519 590.974L38.3629 591.161L38.4855 591.348L38.6198 591.534L38.7658 591.721L38.9235 591.908L39.0928 592.095L39.2738 592.282L39.2738 592.282L39.4614 592.469L39.6505 592.659L39.841 592.849L40.033 593.041L40.2264 593.234L40.4214 593.429L40.6177 593.626L40.8155 593.824L41.0148 594.023L41.2156 594.224L41.4178 594.426L41.6214 594.629L41.8265 594.835L42.0331 595.041L42.2412 595.249L42.4507 595.459L42.6616 595.67L42.874 595.882L43.0879 596.096L43.3032 596.311L43.52 596.528L43.7383 596.746L43.958 596.966L44.1792 597.187L44.4018 597.41L44.6259 597.634L44.8515 597.86L45.0785 598.087L45.307 598.315L45.5369 598.545L45.7683 598.776L46.0012 599.009L46.0012 599.009L46.2333 599.241L46.4625 599.471L46.6888 599.697L46.9122 599.92L47.1326 600.141L47.3502 600.358L47.5648 600.573L47.7765 600.785L47.9852 600.993L48.1911 601.199L48.394 601.402L48.594 601.602L48.7911 601.799L48.9853 601.993L49.1765 602.185L49.3649 602.373L49.5503 602.558L49.7328 602.741L49.9123 602.92L50.089 603.097L50.2627 603.271L50.4335 603.442L50.6014 603.609L50.7664 603.774L50.9285 603.936L51.0876 604.096L51.2438 604.252L51.3971 604.405L51.5475 604.555L51.6949 604.703L51.8394 604.847L51.9811 604.989L51.9811 604.989L52.1168 605.127L52.2438 605.261L52.3621 605.39L52.4716 605.515L52.5723 605.635L52.6643 605.751L52.7475 605.863L52.822 605.97L52.8877 606.073L52.9446 606.172L52.9928 606.266L53.0322 606.356L53.0629 606.441L53.0848 606.522L53.0979 606.599L53.1023 606.671L53.0979 606.739L53.0848 606.802L53.0629 606.861L53.0322 606.916L52.9928 606.967L52.9446 607.013L52.8877 607.054L52.822 607.091L52.7475 607.124L52.6643 607.153L52.5723 607.177L52.4716 607.197L52.3621 607.212L52.2438 607.223L52.1168 607.229L51.9811 607.232L51.9811 607.232L51.8409 607.232L51.7008 607.232L51.5606 607.232L51.4205 607.232L51.2803 607.232L51.1401 607.232L51 607.232L50.8598 607.232L50.7197 607.232L50.5795 607.232L50.4394 607.232L50.2992 607.232L50.1591 607.232L50.0189 607.232L49.8788 607.232L49.7386 607.232L49.5985 607.232L49.4583 607.232L49.3182 607.232L49.178 607.232L49.0378 607.232L48.8977 607.232L48.7575 607.232L48.6174 607.232L48.4772 607.232L48.3371 607.232L48.1969 607.232L48.0568 607.232L47.9166 607.232L47.7765 607.232L47.6363 607.232L47.4962 607.232L47.4962 607.232L47.3567 607.232L47.2188 607.232L47.0823 607.232L46.9472 607.232L46.8136 607.232L46.6815 607.232L46.5509 607.232L46.4217 607.232L46.2939 607.232L46.1676 607.232L46.0428 607.232L45.9194 607.232L45.7975 607.232L45.6771 607.232L45.5581 607.232L45.4406 607.232L45.3245 607.232L45.2099 607.232L45.0968 607.232L44.9851 607.232L44.8749 607.232L44.7661 607.232L44.6588 607.232L44.5529 607.232L44.4486 607.232L44.3456 607.232L44.2442 607.232L44.1442 607.232L44.0456 607.232L43.9485 607.232L43.8529 607.232L43.7587 607.232L43.7587 607.232L43.6653 607.23L43.5719 607.226L43.4784 607.218L43.385 607.208L43.2916 607.195L43.1981 607.179L43.1047 607.16L43.0113 607.138L42.9178 607.113L42.8244 607.086L42.731 607.055L42.6375 607.021L42.5441 606.985L42.4507 606.945L42.3572 606.903L42.2638 606.858L42.1703 606.81L42.0769 606.759L41.9835 606.705L41.89 606.648L41.7966 606.588L41.7032 606.525L41.6097 606.459L41.5163 606.391L41.4229 606.319L41.3294 606.245L41.236 606.167L41.1426 606.087L41.0491 606.004L40.9557 605.918L40.8622 605.829L40.7688 605.737L40.7688 605.737L40.6754 605.643L40.5819 605.55L40.4885 605.456L40.3951 605.363L40.3016 605.269L40.2082 605.176L40.1148 605.083L40.0213 604.989L39.9279 604.896L39.8345 604.802L39.741 604.709L39.6476 604.615L39.5542 604.522L39.4607 604.428L39.3673 604.335L39.2738 604.242L39.1804 604.148L39.087 604.055L38.9935 603.961L38.9001 603.868L38.8067 603.774L38.7132 603.681L38.6198 603.588L38.5264 603.494L38.4329 603.401L38.3395 603.307L38.2461 603.214L38.1526 603.12L38.0592 603.027L37.9658 602.934L37.8723 602.84L37.7789 602.747L37.7789 602.747L37.684 602.652L37.5862 602.554L37.4854 602.453L37.3818 602.35L37.2752 602.243L37.1657 602.133L37.0533 602.021L36.938 601.906L36.8197 601.787L36.6985 601.666L36.5744 601.542L36.4474 601.415L36.3175 601.285L36.1846 601.152L36.0489 601.017L35.9102 600.878L35.7686 600.736L35.624 600.592L35.4766 600.444L35.3262 600.294L35.1729 600.141L35.0167 599.984L34.8576 599.825L34.6955 599.663L34.5305 599.498L34.3626 599.33L34.1918 599.16L34.0181 598.986L33.8415 598.809L33.6619 598.63L33.4794 598.447L33.294 598.262L33.294 598.262L33.1071 598.081L32.9202 597.911L32.7334 597.754L32.5465 597.608L32.3596 597.473L32.1728 597.351L31.9859 597.24L31.799 597.141L31.6121 597.053L31.4253 596.977L31.2384 596.913L31.0515 596.86L30.8647 596.819L30.6778 596.79L30.4909 596.773L30.304 596.767L30.1172 596.773L29.9303 596.79L29.7434 596.819L29.5566 596.86L29.3697 596.913L29.1828 596.977L28.996 597.053L28.8091 597.141L28.6222 597.24L28.4353 597.351L28.2485 597.473L28.0616 597.608L27.8747 597.754L27.6879 597.911L27.501 598.081L27.3141 598.262L27.3141 598.262L27.1287 598.447L26.9462 598.63L26.7666 598.809L26.59 598.986L26.4163 599.16L26.2454 599.33L26.0776 599.498L25.9126 599.663L25.7505 599.825L25.5914 599.984L25.4352 600.141L25.2819 600.294L25.1315 600.444L24.9841 600.592L24.8395 600.736L24.6979 600.878L24.5592 601.017L24.4235 601.152L24.2906 601.285L24.1607 601.415L24.0337 601.542L23.9096 601.666L23.7884 601.787L23.6701 601.906L23.5548 602.021L23.4424 602.133L23.3329 602.243L23.2263 602.35L23.1227 602.453L23.0219 602.554L22.9241 602.652L22.8292 602.747L22.8292 602.747L22.7358 602.84L22.6423 602.934L22.5489 603.027L22.4555 603.12L22.362 603.214L22.2686 603.307L22.1752 603.401L22.0817 603.494L21.9883 603.588L21.8949 603.681L21.8014 603.774L21.708 603.868L21.6146 603.961L21.5211 604.055L21.4277 604.148L21.3342 604.242L21.2408 604.335L21.1474 604.428L21.0539 604.522L20.9605 604.615L20.8671 604.709L20.7736 604.802L20.6802 604.896L20.5868 604.989L20.4933 605.083L20.3999 605.176L20.3065 605.269L20.213 605.363L20.1196 605.456L20.0262 605.55L19.9327 605.643L19.8393 605.737L19.8393 605.737L19.7458 605.829L19.6524 605.918L19.559 606.004L19.4655 606.087L19.3721 606.167L19.2787 606.245L19.1852 606.319L19.0918 606.391L18.9984 606.459L18.9049 606.525L18.8115 606.588L18.7181 606.648L18.6246 606.705L18.5312 606.759L18.4377 606.81L18.3443 606.858L18.2509 606.903L18.1574 606.945L18.064 606.985L17.9706 607.021L17.8771 607.055L17.7837 607.086L17.6903 607.113L17.5968 607.138L17.5034 607.16L17.41 607.179L17.3165 607.195L17.2231 607.208L17.1297 607.218L17.0362 607.226L16.9428 607.23L16.8493 607.232L16.8493 607.232L16.7552 607.232L16.6596 607.232L16.5625 607.232L16.4639 607.232L16.3639 607.232L16.2625 607.232L16.1595 607.232L16.0551 607.232L15.9493 607.232L15.842 607.232L15.7332 607.232L15.623 607.232L15.5113 607.232L15.3982 607.232L15.2836 607.232L15.1675 607.232L15.05 607.232L14.931 607.232L14.8106 607.232L14.6887 607.232L14.5653 607.232L14.4405 607.232L14.3142 607.232L14.1864 607.232L14.0572 607.232L13.9266 607.232L13.7944 607.232L13.6609 607.232L13.5258 607.232L13.3893 607.232L13.2514 607.232L13.1119 607.232L13.1119 607.232L12.9718 607.232L12.8316 607.232L12.6915 607.232L12.5513 607.232L12.4112 607.232L12.271 607.232L12.1309 607.232L11.9907 607.232L11.8506 607.232L11.7104 607.232L11.5702 607.232L11.4301 607.232L11.2899 607.232L11.1498 607.232L11.0096 607.232L10.8695 607.232L10.7293 607.232L10.5892 607.232L10.449 607.232L10.3089 607.232L10.1687 607.232L10.0286 607.232L9.88841 607.232L9.74826 607.232L9.6081 607.232L9.46795 607.232L9.3278 607.232L9.18764 607.232L9.04749 607.232L8.90734 607.232L8.76718 607.232L8.62703 607.232L8.62703 607.232L8.49126 607.229L8.36424 607.223L8.24599 607.212L8.1365 607.197L8.03576 607.177L7.94378 607.153L7.86057 607.124L7.78611 607.091L7.72042 607.054L7.66348 607.013L7.6153 606.967L7.57588 606.916L7.54522 606.861L7.52333 606.802L7.51019 606.739L7.50581 606.671L7.51019 606.599L7.52333 606.522L7.54522 606.441L7.57588 606.356L7.6153 606.266L7.66348 606.172L7.72042 606.073L7.78611 605.97L7.86057 605.863L7.94378 605.751L8.03576 605.635L8.1365 605.515L8.24599 605.39L8.36424 605.261L8.49126 605.127L8.62703 604.989L8.62703 604.989L8.76864 604.847L8.91318 604.703L9.06063 604.555L9.211 604.405L9.36429 604.252L9.52051 604.096L9.67964 603.936L9.84169 603.774L10.0067 603.609L10.1746 603.442L10.3454 603.271L10.5191 603.097L10.6957 602.92L10.8753 602.741L11.0578 602.558L11.2432 602.373L11.4316 602.185L11.6228 601.993L11.817 601.799L12.0141 601.602L12.2141 601.402L12.417 601.199L12.6229 600.993L12.8316 600.785L13.0433 600.573L13.2579 600.358L13.4755 600.141L13.6959 599.92L13.9193 599.697L14.1456 599.471L14.3748 599.241L14.6069 599.009L14.6069 599.009L14.8398 598.776L15.0712 598.545L15.3011 598.315L15.5296 598.087L15.7566 597.86L15.9822 597.634L16.2062 597.41L16.4289 597.187L16.6501 596.966L16.8698 596.746L17.088 596.528L17.3048 596.311L17.5202 596.096L17.7341 595.882L17.9465 595.67L18.1574 595.459L18.3669 595.249L18.575 595.041L18.7816 594.835L18.9867 594.629L19.1903 594.426L19.3925 594.224L19.5933 594.023L19.7926 593.824L19.9904 593.626L20.1867 593.429L20.3816 593.234L20.5751 593.041L20.7671 592.849L20.9576 592.659L21.1466 592.469L21.3342 592.282L21.3342 592.282L21.5153 592.095L21.6846 591.908L21.8423 591.721L21.9883 591.534L22.1226 591.348L22.2452 591.161L22.3562 590.974L22.4555 590.787L22.5431 590.6L22.619 590.413L22.6832 590.226L22.7358 590.039L22.7767 589.853L22.8059 589.666L22.8234 589.479L22.8292 589.292L22.8234 589.105L22.8059 588.918L22.7767 588.731L22.7358 588.544L22.6832 588.358L22.619 588.171L22.5431 587.984L22.4555 587.797L22.3562 587.61L22.2452 587.423L22.1226 587.236L21.9883 587.049L21.8423 586.863L21.6846 586.676L21.5153 586.489L21.3342 586.302L21.3342 586.302L21.1466 586.114L20.9576 585.925L20.7671 585.735L20.5751 585.543L20.3816 585.349L20.1867 585.155L19.9904 584.958L19.7926 584.76L19.5933 584.561L19.3925 584.36L19.1903 584.158L18.9867 583.954L18.7816 583.749L18.575 583.543L18.3669 583.335L18.1574 583.125L17.9465 582.914L17.7341 582.702L17.5202 582.488L17.3048 582.273L17.088 582.056L16.8698 581.838L16.6501 581.618L16.4289 581.397L16.2062 581.174L15.9822 580.95L15.7566 580.724L15.5296 580.497L15.3011 580.269L15.0712 580.039L14.8398 579.808L14.6069 579.575L14.6069 579.575L14.3748 579.343L14.1456 579.113L13.9193 578.887L13.6959 578.664L13.4755 578.443L13.2579 578.226L13.0433 578.011L12.8316 577.799L12.6229 577.591L12.417 577.385L12.2141 577.182L12.0141 576.982L11.817 576.785L11.6228 576.591L11.4316 576.399L11.2432 576.211L11.0578 576.026L10.8753 575.843L10.6957 575.664L10.5191 575.487L10.3454 575.313L10.1746 575.142L10.0067 574.974L9.84169 574.809L9.67964 574.647L9.52051 574.488L9.36429 574.332L9.211 574.179L9.06063 574.028L8.91318 573.881L8.76864 573.736L8.62703 573.595L8.62703 573.595L8.49126 573.457L8.36424 573.323L8.24599 573.194L8.1365 573.069L8.03576 572.949L7.94378 572.833L7.86057 572.721L7.78611 572.614L7.72042 572.511L7.66348 572.412L7.6153 572.318L7.57588 572.228L7.54522 572.143L7.52333 572.062L7.51019 571.985L7.50581 571.913L7.51019 571.845L7.52333 571.782L7.54522 571.722L7.57588 571.668L7.6153 571.617L7.66348 571.571L7.72042 571.53L7.78611 571.493L7.86057 571.46L7.94378 571.431L8.03576 571.407L8.1365 571.387L8.24599 571.372L8.36424 571.361L8.49126 571.355L8.62703 571.352L8.62703 571.352L8.76718 571.352L8.90734 571.352L9.04749 571.352L9.18764 571.352L9.3278 571.352L9.46795 571.352L9.6081 571.352L9.74826 571.352L9.88841 571.352L10.0286 571.352L10.1687 571.352L10.3089 571.352L10.449 571.352L10.5892 571.352L10.7293 571.352L10.8695 571.352L11.0096 571.352L11.1498 571.352L11.2899 571.352L11.4301 571.352L11.5702 571.352L11.7104 571.352L11.8506 571.352L11.9907 571.352L12.1309 571.352L12.271 571.352L12.4112 571.352L12.5513 571.352L12.6915 571.352L12.8316 571.352L12.9718 571.352L13.1119 571.352L13.1119 571.352L13.2514 571.352L13.3893 571.352L13.5258 571.352L13.6609 571.352L13.7944 571.352L13.9266 571.352L14.0572 571.352L14.1864 571.352L14.3142 571.352L14.4405 571.352L14.5653 571.352L14.6887 571.352L14.8106 571.352L14.931 571.352L15.05 571.352L15.1675 571.352L15.2836 571.352L15.3982 571.352L15.5113 571.352L15.623 571.352L15.7332 571.352L15.842 571.352L15.9493 571.352L16.0551 571.352L16.1595 571.352L16.2625 571.352L16.3639 571.352L16.4639 571.352L16.5625 571.352L16.6596 571.352L16.7552 571.352L16.8493 571.352L16.8493 571.352L16.9428 571.354L17.0362 571.358L17.1297 571.365L17.2231 571.376L17.3165 571.389L17.41 571.405L17.5034 571.424L17.5968 571.446L17.6903 571.471L17.7837 571.498L17.8771 571.529L17.9706 571.563L18.064 571.599L18.1574 571.638L18.2509 571.681L18.3443 571.726L18.4377 571.774L18.5312 571.825L18.6246 571.879L18.7181 571.936L18.8115 571.996L18.9049 572.059L18.9984 572.125L19.0918 572.193L19.1852 572.265L19.2787 572.339L19.3721 572.417L19.4655 572.497L19.559 572.58L19.6524 572.666L19.7458 572.755L19.8393 572.847L19.8393 572.847L19.9327 572.941L20.0262 573.034L20.1196 573.128L20.213 573.221L20.3065 573.314L20.3999 573.408L20.4933 573.501L20.5868 573.595L20.6802 573.688L20.7736 573.782L20.8671 573.875L20.9605 573.969L21.0539 574.062L21.1474 574.155L21.2408 574.249L21.3342 574.342L21.4277 574.436L21.5211 574.529L21.6146 574.623L21.708 574.716L21.8014 574.809L21.8949 574.903L21.9883 574.996L22.0817 575.09L22.1752 575.183L22.2686 575.277L22.362 575.37L22.4555 575.464L22.5489 575.557L22.6423 575.65L22.7358 575.744L22.8292 575.837L22.8292 575.837L22.9241 575.932L23.0219 576.03L23.1227 576.131L23.2263 576.234L23.3329 576.341L23.4424 576.45L23.5548 576.563L23.6701 576.678L23.7884 576.796L23.9096 576.918L24.0337 577.042L24.1607 577.169L24.2906 577.299L24.4235 577.431L24.5592 577.567L24.6979 577.706L24.8395 577.848L24.9841 577.992L25.1315 578.14L25.2819 578.29L25.4352 578.443L25.5914 578.599L25.7505 578.759L25.9126 578.921L26.0776 579.086L26.2454 579.253L26.4163 579.424L26.59 579.598L26.7666 579.775L26.9462 579.954L27.1287 580.137L27.3141 580.322L27.3141 580.322L27.501 580.503L27.6879 580.673L27.8747 580.83L28.0616 580.976L28.2485 581.111L28.4353 581.233L28.6222 581.344L28.8091 581.443L28.996 581.531L29.1828 581.607L29.3697 581.671L29.5566 581.724L29.7434 581.765L29.9303 581.794L30.1172 581.811L30.304 581.817L30.4909 581.811L30.6778 581.794L30.8647 581.765L31.0515 581.724L31.2384 581.671L31.4253 581.607L31.6121 581.531L31.799 581.443L31.9859 581.344L32.1728 581.233L32.3596 581.111L32.5465 580.976L32.7334 580.83L32.9202 580.673L33.1071 580.503L33.294 580.322L33.294 580.322L33.4794 580.137L33.6619 579.954L33.8415 579.775L34.0181 579.598L34.1918 579.424L34.3626 579.253L34.5305 579.086L34.6955 578.921L34.8576 578.759L35.0167 578.599L35.1729 578.443L35.3262 578.29L35.4766 578.14L35.624 577.992L35.7686 577.848L35.9102 577.706L36.0489 577.567L36.1846 577.431L36.3175 577.299L36.4474 577.169L36.5744 577.042L36.6985 576.918L36.8197 576.796L36.938 576.678L37.0533 576.563L37.1657 576.45L37.2752 576.341L37.3818 576.234L37.4854 576.131L37.5862 576.03L37.684 575.932L37.7789 575.837L37.7789 575.837L37.8723 575.744L37.9658 575.65L38.0592 575.557L38.1526 575.464L38.2461 575.37L38.3395 575.277L38.4329 575.183L38.5264 575.09L38.6198 574.996L38.7132 574.903L38.8067 574.809L38.9001 574.716L38.9935 574.623L39.087 574.529L39.1804 574.436L39.2738 574.342L39.3673 574.249L39.4607 574.155L39.5542 574.062L39.6476 573.969L39.741 573.875L39.8345 573.782L39.9279 573.688L40.0213 573.595L40.1148 573.501L40.2082 573.408L40.3016 573.314L40.3951 573.221L40.4885 573.128L40.5819 573.034L40.6754 572.941L40.7688 572.847L40.7688 572.847L40.8622 572.755L40.9557 572.666L41.0491 572.58L41.1426 572.497L41.236 572.417L41.3294 572.339L41.4229 572.265L41.5163 572.193L41.6097 572.125L41.7032 572.059L41.7966 571.996L41.89 571.936L41.9835 571.879L42.0769 571.825L42.1703 571.774L42.2638 571.726L42.3572 571.681L42.4507 571.638L42.5441 571.599L42.6375 571.563L42.731 571.529L42.8244 571.498L42.9178 571.471L43.0113 571.446L43.1047 571.424L43.1981 571.405L43.2916 571.389L43.385 571.376L43.4784 571.365L43.5719 571.358L43.6653 571.354L43.7587 571.352L43.7587 571.352L43.8529 571.352L43.9485 571.352L44.0456 571.352L44.1442 571.352L44.2442 571.352L44.3456 571.352L44.4486 571.352L44.5529 571.352L44.6588 571.352L44.7661 571.352L44.8749 571.352L44.9851 571.352L45.0968 571.352L45.2099 571.352L45.3245 571.352L45.4406 571.352L45.5581 571.352L45.6771 571.352L45.7975 571.352L45.9194 571.352L46.0428 571.352L46.1676 571.352L46.2939 571.352L46.4217 571.352L46.5509 571.352L46.6815 571.352L46.8136 571.352L46.9472 571.352L47.0823 571.352L47.2188 571.352L47.3567 571.352L47.4962 571.352L47.4962 571.352L47.6363 571.352L47.7765 571.352L47.9166 571.352L48.0568 571.352L48.1969 571.352L48.3371 571.352L48.4772 571.352L48.6174 571.352L48.7575 571.352L48.8977 571.352L49.0378 571.352L49.178 571.352L49.3182 571.352L49.4583 571.352L49.5985 571.352L49.7386 571.352L49.8788 571.352L50.0189 571.352L50.1591 571.352L50.2992 571.352L50.4394 571.352L50.5795 571.352L50.7197 571.352L50.8598 571.352L51 571.352L51.1401 571.352L51.2803 571.352L51.4205 571.352L51.5606 571.352L51.7008 571.352L51.8409 571.352L51.9811 571.352L51.9811 571.352L52.1168 571.355L52.2438 571.361L52.3621 571.372L52.4716 571.387L52.5723 571.407L52.6643 571.431L52.7475 571.46L52.822 571.493L52.8877 571.53L52.9446 571.571L52.9928 571.617L53.0322 571.668L53.0629 571.722L53.0848 571.782L53.0979 571.845L53.1023 571.913L53.0979 571.985L53.0848 572.062L53.0629 572.143L53.0322 572.228L52.9928 572.318L52.9446 572.412L52.8877 572.511L52.822 572.614L52.7475 572.721L52.6643 572.833L52.5723 572.949L52.4716 573.069L52.3621 573.194L52.2438 573.323L52.1168 573.457L51.9811 573.595L51.9811 573.595L51.8387 573.737L51.692 573.884L51.5409 574.035L51.3854 574.19L51.2255 574.35L51.0613 574.515L50.8927 574.683L50.7197 574.856L50.5423 575.034L50.3605 575.215L50.1744 575.401L49.9839 575.592L49.789 575.787L49.5897 575.986L49.386 576.19L49.178 576.398L48.9656 576.61L48.7488 576.827L48.5276 577.048L48.302 577.274L48.0721 577.504L47.8378 577.738L47.5991 577.977L47.356 578.22L47.1086 578.467L46.8567 578.719L46.6005 578.975L46.3399 579.236L46.0749 579.501L45.8056 579.77L45.5318 580.044L45.2537 580.322"/>
<path class="l5" d="M182.791 324.683L179.801 326.178L182.791 327.673L182.791 324.683"/>
<path class="l5" d="M181.296 306.743L184.286 306.743L184.286 309.733L181.296 309.733L181.296 306.743z"/>
<path class="l5" d="M157.376 324.683L160.366 324.683L160.366 327.673L157.376 327.673L157.376 324.683z"/>
<path class="l5" d="M181.296 342.622L184.286 342.622L184.286 345.612L181.296 345.612L181.296 342.622z"/>
<path class="l5" d="M182.744 326.131L182.837 326.131L182.837 326.225L182.744 326.225L182.744 326.131z"/>
<path class="l5" d="M182.791 390.461L179.801 391.956L182.791 393.451L182.791 390.461"/>
<path class="l5" d="M181.296 372.522L184.286 372.522L184.286 375.512L181.296 375.512L181.296 372.522z"/>
<path class="l5" d="M157.376 390.461L160.366 390.461L160.366 393.451L157.376 393.451L157.376 390.461z"/>
<path class="l5" d="M181.296 408.401L184.286 408.401L184.286 411.391L181.296 411.391L181.296 408.401z"/>
<path class="l5" d="M182.744 391.91L182.837 391.91L182.837 392.003L182.744 392.003L182.744 391.91z"/>
<path class="l5" d="M302.388 324.683L299.398 326.178L302.388 327.673L302.388 324.683"/>
<path class="l5" d="M300.893 306.743L303.883 306.743L303.883 309.733L300.893 309.733L300.893 306.743z"/>
<path class="l5" d="M276.974 324.683L279.963 324.683L279.963 327.673L276.974 327.673L276.974 324.683z"/>
<path class="l5" d="M300.893 342.622L303.883 342.622L303.883 345.612L300.893 345.612L300.893 342.622z"/>
<path class="l5" d="M302.341 326.131L302.435 326.131L302.435 326.225L302.341 326.225L302.341 326.131z"/>
<path class="l5" d="M302.388 390.461L299.398 391.956L302.388 393.451L302.388 390.461"/>
<path class="l5" d="M300.893 372.522L303.883 372.522L303.883 375.512L300.893 375.512L300.893 372.522z"/>
<path class="l5" d="M276.974 390.461L279.963 390.461L279.963 393.451L276.974 393.451L276.974 390.461z"/>
<path class="l5" d="M300.893 408.401L303.883 408.401L303.883 411.391L300.893 411.391L300.893 408.401z"/>
<path class="l5" d="M302.341 391.91L302.435 391.91L302.435 392.003L302.341 392.003L302.341 391.91z"/>
<path class="l5" d="M416.005 354.582L413.015 356.077L416.005 357.572L416.005 354.582"/>
<path class="l5" d="M414.51 336.643L417.5 336.643L417.5 339.633L414.51 339.633L414.51 336.643z"/>
<path class="l5" d="M390.591 354.582L393.581 354.582L393.581 357.572L390.591 357.572L390.591 354.582z"/>
<path class="l5" d="M414.51 372.522L417.5 372.522L417.5 375.512L414.51 375.512L414.51 372.522z"/>
<path class="l5" d="M415.959 356.03L416.052 356.03L416.052 356.124L415.959 356.124L415.959 356.03z"/>
<path class="l5" d="M245.579 109.408L248.569 110.903L245.579 112.398L245.579 109.408"/>
<path class="l5" d="M247.074 127.347L250.064 127.347L250.064 130.337L247.074 130.337L247.074 127.347z"/>
<path class="l5" d="M223.155 109.408L226.145 109.408L226.145 112.398L223.155 112.398L223.155 109.408z"/>
<path class="l5" d="M247.074 91.4681L250.064 91.4681L250.064 94.458L247.074 94.458L247.074 91.4681z"/>
<path class="l5" d="M248.522 110.856L248.616 110.856L248.616 110.949L248.522 110.949L248.522 110.856z"/>
<path class="l5" d="M353.217 109.408L356.207 110.903L353.217 112.398L353.217 109.408"/>
<path class="l5" d="M354.712 127.347L357.702 127.347L357.702 130.337L354.712 130.337L354.712 127.347z"/>
<path class="l5" d="M330.792 109.408L333.782 109.408L333.782 112.398L330.792 112.398L330.792 109.408z"/>
<path class="l5" d="M354.712 91.4681L357.702 91.4681L357.702 94.458L354.712 94.458L354.712 91.4681z"/>
<path class="l5" d="M356.16 110.856L356.253 110.856L356.253 110.949L356.16 110.949L356.16 110.856z"/>
<path class="l5" d="M245.579 234.985L248.569 236.48L245.579 237.975L245.579 234.985"/>
<path class="l5" d="M247.074 252.924L250.064 252.924L250.064 255.914L247.074 255.914L247.074 252.924z"/>
<path class="l5" d="M223.155 234.985L226.145 234.985L226.145 237.975L223.155 237.975L223.155 234.985z"/>
<path class="l5" d="M247.074 217.045L250.064 217.045L250.064 220.035L247.074 220.035L247.074 217.045z"/>
<path class="l5" d="M248.522 236.433L248.616 236.433L248.616 236.527L248.522 236.527L248.522 236.433z"/>
<path class="l5" d="M353.217 234.985L356.207 236.48L353.217 237.975L353.217 234.985"/>
<path class="l5" d="M354.712 252.924L357.702 252.924L357.702 255.914L354.712 255.914L354.712 252.924z"/>
<path class="l5" d="M330.792 234.985L333.782 234.985L333.782 237.975L330.792 237.975L330.792 234.985z"/>
<path class="l5" d="M354.712 217.045L357.702 217.045L357.702 220.035L354.712 220.035L354.712 217.045z"/>
<path class="l5" d="M356.16 236.433L356.253 236.433L356.253 236.527L356.16 236.527L356.16 236.433z"/>
<path class="l5" d="M299.398 181.166L302.388 182.661L299.398 184.156L299.398 181.166"/>
<path class="l5" d="M300.893 199.106L303.883 199.106L303.883 202.096L300.893 202.096L300.893 199.106z"/>
<path class="l5" d="M276.974 181.166L279.963 181.166L279.963 184.156L276.974 184.156L276.974 181.166z"/>
<path class="l5" d="M300.893 163.226L303.883 163.226L303.883 166.216L300.893 166.216L300.893 163.226z"/>
<path class="l5" d="M302.341 182.614L302.435 182.614L302.435 182.708L302.341 182.708L302.341 182.614z"/>
<path class="l5" d="M248.569 91.0943L248.569 92.963"/>
<path class="l5" d="M251.559 84.7407L248.569 82.4983L245.579 84.7407L245.579 88.8519L248.569 91.0943L251.559 88.8519L251.559 84.7407"/>
<path class="l5" d="M247.822 92.2156L249.317 92.2156L249.317 93.7105L247.822 93.7105L247.822 92.2156z"/>
<path class="l5" d="M182.791 409.896L182.791 411.765"/>
<path class="l5" d="M179.801 418.118L182.791 420.361L185.781 418.118L185.781 414.007L182.791 411.765L179.801 414.007L179.801 418.118"/>
<path class="l5" d="M182.043 409.148L183.538 409.148L183.538 410.643L182.043 410.643L182.043 409.148z"/>
<path class="l5" d="M259.781 110.155L261.276 110.155L261.276 111.65L259.781 111.65L259.781 110.155z"/>
<path class="l5" d="M367.419 110.155L368.914 110.155L368.914 111.65L367.419 111.65L367.419 110.155z"/>
<path class="l5" d="M367.419 235.732L368.914 235.732L368.914 237.227L367.419 237.227L367.419 235.732z"/>
<path class="l5" d="M259.781 235.732L261.276 235.732L261.276 237.227L259.781 237.227L259.781 235.732z"/>
<path class="l5" d="M313.6 181.914L315.095 181.914L315.095 183.409L313.6 183.409L313.6 181.914z"/>
<path class="l5" d="M319.58 391.209L321.075 391.209L321.075 392.704L319.58 392.704L319.58 391.209z"/>
<path class="l5" d="M319.58 325.43L321.075 325.43L321.075 326.925L319.58 326.925L319.58 325.43z"/>
<path class="l5" d="M199.983 325.43L201.478 325.43L201.478 326.925L199.983 326.925L199.983 325.43z"/>
<path class="l5" d="M433.198 355.33L434.693 355.33L434.693 356.825L433.198 356.825L433.198 355.33z"/>
<path class="l5" d="M199.983 391.209L201.478 391.209L201.478 392.704L199.983 392.704L199.983 391.209z"/>
<path class="l5" d="M355.459 80.2558L356.954 80.2558L356.954 81.7508L355.459 81.7508L355.459 80.2558z"/>
<path class="l5" d="M301.64 421.108L303.135 421.108L303.135 422.603L301.64 422.603L301.64 421.108z"/>
<path class="l5" d="M415.258 385.229L416.753 385.229L416.753 386.724L415.258 386.724L415.258 385.229z"/>
<path class="l5" d="M155.881 326.178L158.871 326.178"/>
<path class="l5" d="M155.881 326.178L153.639 323.188L148.406 323.188L150.649 326.178L148.406 329.168L153.639 329.168L155.881 326.178"/>
<path class="l5" d="M158.124 325.43L159.619 325.43L159.619 326.925L158.124 326.925L158.124 325.43z"/>
<path class="l5" d="M155.881 391.956L158.871 391.956"/>
<path class="l5" d="M155.881 391.956L153.639 388.966L148.406 388.966L150.649 391.956L148.406 394.946L153.639 394.946L155.881 391.956"/>
<path class="l5" d="M158.124 391.209L159.619 391.209L159.619 392.704L158.124 392.704L158.124 391.209z"/>
<path class="l5" d="M275.479 391.956L278.469 391.956"/>
<path class="l5" d="M275.479 391.956L273.236 388.966L268.004 388.966L270.246 391.956L268.004 394.946L273.236 394.946L275.479 391.956"/>
<path class="l5" d="M277.721 391.209L279.216 391.209L279.216 392.704L277.721 392.704L277.721 391.209z"/>
<path class="l5" d="M275.479 326.178L278.469 326.178"/>
<path class="l5" d="M275.479 326.178L273.236 323.188L268.004 323.188L270.246 326.178L268.004 329.168L273.236 329.168L275.479 326.178"/>
<path class="l5" d="M277.721 325.43L279.216 325.43L279.216 326.925L277.721 326.925L277.721 325.43z"/>
<path class="l5" d="M389.096 356.077L392.086 356.077"/>
<path class="l5" d="M389.096 356.077L386.854 353.087L381.621 353.087L383.864 356.077L381.621 359.067L386.854 359.067L389.096 356.077"/>
<path class="l5" d="M391.338 355.33L392.833 355.33L392.833 356.825L391.338 356.825L391.338 355.33z"/>
<path class="l5" d="M205.963 235.732L207.458 235.732L207.458 237.227L205.963 237.227L205.963 235.732z"/>
<path class="l5" d="M205.963 110.155L207.458 110.155L207.458 111.65L205.963 111.65L205.963 110.155z"/>
<path class="l5" d="M313.6 110.155L315.095 110.155L315.095 111.65L313.6 111.65L313.6 110.155z"/>
<path class="l5" d="M313.6 235.732L315.095 235.732L315.095 237.227L313.6 237.227L313.6 235.732z"/>
<path class="l5" d="M259.781 181.914L261.276 181.914L261.276 183.409L259.781 183.409L259.781 181.914z"/>
<path class="l5" d="M416.005 272.359L421.238 272.359"/>
<path class="l5" d="M426.47 272.359L424.228 269.369L418.995 269.369L421.238 272.359L418.995 275.349L424.228 275.349L426.47 272.359"/>
<path class="l5" d="M415.258 271.612L416.753 271.612L416.753 273.107L415.258 273.107L415.258 271.612z"/>
<path class="l6" d="M185.781 589.292L661.18 589.292"/>
<text fill="#cccccc"  xml:space="preserve" font-size="12.4381" transform="translate(191.76, 603.576)" >         gf180mcu_gp9t3v3__aoi221_1.sch</text>
<text fill="#cccccc"  xml:space="preserve" font-size="12.4381" transform="translate(191.76, 585.636)" >Adrian Sami Pratama</text>
<text fill="#cccccc"  xml:space="preserve" font-size="12.4381" transform="translate(525.18, 585.636)" >2025-08-08  08:52:51</text>
<text fill="#cccccc"  xml:space="preserve" font-size="31.0953" transform="translate(54.2235, 602.577)" >SCHEM</text>
<text fill="#cccccc"  xml:space="preserve" font-size="6.21906" transform="translate(149.821, 313.885)" >XMA0_n</text>
<text fill="#ff0000"  xml:space="preserve" font-size="4.6643" transform="translate(184.286, 340.878)" >S</text>
<text fill="#ff0000"  xml:space="preserve" font-size="4.6643" transform="translate(184.286, 314.598)" >D</text>
<text fill="#ff0000"  xml:space="preserve" font-size="4.6643" transform="translate(182.791, 324.433)" >B</text>
<text fill="#ff0000"  xml:space="preserve" font-size="4.6643" transform="translate(160.851, 324.433)" >G</text>
<text fill="#cccccc"  xml:space="preserve" font-size="6.21906" transform="translate(188.771, 319.459)" >nfet_03v3</text>
<text fill="#aaaa00"  xml:space="preserve" font-size="6.21906" transform="translate(189.518, 340.047)" >1 x 0.85u / 0.3u</text>
<text fill="#aaaa00"  xml:space="preserve" font-size="6.21906" transform="translate(189.518, 332.572)" >nf=1</text>
<text fill="#cccccc"  xml:space="preserve" font-size="6.21906" transform="translate(149.821, 379.664)" >XMA1_n</text>
<text fill="#ff0000"  xml:space="preserve" font-size="4.6643" transform="translate(184.286, 406.656)" >S</text>
<text fill="#ff0000"  xml:space="preserve" font-size="4.6643" transform="translate(184.286, 380.377)" >D</text>
<text fill="#ff0000"  xml:space="preserve" font-size="4.6643" transform="translate(182.791, 390.212)" >B</text>
<text fill="#ff0000"  xml:space="preserve" font-size="4.6643" transform="translate(160.851, 390.212)" >G</text>
<text fill="#cccccc"  xml:space="preserve" font-size="6.21906" transform="translate(188.771, 385.238)" >nfet_03v3</text>
<text fill="#aaaa00"  xml:space="preserve" font-size="6.21906" transform="translate(189.518, 405.826)" >1 x 0.85u / 0.3u</text>
<text fill="#aaaa00"  xml:space="preserve" font-size="6.21906" transform="translate(189.518, 398.351)" >nf=1</text>
<text fill="#cccccc"  xml:space="preserve" font-size="6.21906" transform="translate(269.418, 313.885)" >XMB0_n</text>
<text fill="#ff0000"  xml:space="preserve" font-size="4.6643" transform="translate(303.883, 340.878)" >S</text>
<text fill="#ff0000"  xml:space="preserve" font-size="4.6643" transform="translate(303.883, 314.598)" >D</text>
<text fill="#ff0000"  xml:space="preserve" font-size="4.6643" transform="translate(302.388, 324.433)" >B</text>
<text fill="#ff0000"  xml:space="preserve" font-size="4.6643" transform="translate(280.448, 324.433)" >G</text>
<text fill="#cccccc"  xml:space="preserve" font-size="6.21906" transform="translate(308.368, 319.459)" >nfet_03v3</text>
<text fill="#aaaa00"  xml:space="preserve" font-size="6.21906" transform="translate(309.115, 340.047)" >1 x 0.85u / 0.3u</text>
<text fill="#aaaa00"  xml:space="preserve" font-size="6.21906" transform="translate(309.115, 332.572)" >nf=1</text>
<text fill="#cccccc"  xml:space="preserve" font-size="6.21906" transform="translate(269.418, 379.664)" >XMB1_n</text>
<text fill="#ff0000"  xml:space="preserve" font-size="4.6643" transform="translate(303.883, 406.656)" >S</text>
<text fill="#ff0000"  xml:space="preserve" font-size="4.6643" transform="translate(303.883, 380.377)" >D</text>
<text fill="#ff0000"  xml:space="preserve" font-size="4.6643" transform="translate(302.388, 390.212)" >B</text>
<text fill="#ff0000"  xml:space="preserve" font-size="4.6643" transform="translate(280.448, 390.212)" >G</text>
<text fill="#cccccc"  xml:space="preserve" font-size="6.21906" transform="translate(308.368, 385.238)" >nfet_03v3</text>
<text fill="#aaaa00"  xml:space="preserve" font-size="6.21906" transform="translate(309.115, 405.826)" >1 x 0.85u / 0.3u</text>
<text fill="#aaaa00"  xml:space="preserve" font-size="6.21906" transform="translate(309.115, 398.351)" >nf=1</text>
<text fill="#cccccc"  xml:space="preserve" font-size="6.21906" transform="translate(387.036, 343.784)" >XMC_n</text>
<text fill="#ff0000"  xml:space="preserve" font-size="4.6643" transform="translate(417.5, 370.777)" >S</text>
<text fill="#ff0000"  xml:space="preserve" font-size="4.6643" transform="translate(417.5, 344.498)" >D</text>
<text fill="#ff0000"  xml:space="preserve" font-size="4.6643" transform="translate(416.005, 354.332)" >B</text>
<text fill="#ff0000"  xml:space="preserve" font-size="4.6643" transform="translate(394.066, 354.332)" >G</text>
<text fill="#cccccc"  xml:space="preserve" font-size="6.21906" transform="translate(421.985, 349.358)" >nfet_03v3</text>
<text fill="#aaaa00"  xml:space="preserve" font-size="6.21906" transform="translate(422.733, 369.946)" >1 x 0.85u / 0.3u</text>
<text fill="#aaaa00"  xml:space="preserve" font-size="6.21906" transform="translate(422.733, 362.472)" >nf=1</text>
<text fill="#ff0000"  xml:space="preserve" font-size="4.6643" transform="translate(250.064, 125.603)" >D</text>
<text fill="#ff0000"  xml:space="preserve" font-size="4.6643" transform="translate(250.064, 99.3231)" >S</text>
<text fill="#ff0000"  xml:space="preserve" font-size="4.6643" transform="translate(248.569, 109.158)" >B</text>
<text fill="#ff0000"  xml:space="preserve" font-size="4.6643" transform="translate(226.63, 109.158)" >G</text>
<text fill="#cccccc"  xml:space="preserve" font-size="6.21906" transform="translate(254.549, 104.184)" >pfet_03v3</text>
<text fill="#aaaa00"  xml:space="preserve" font-size="6.21906" transform="translate(255.297, 124.772)" >1 x 1.7u / 0.3u</text>
<text fill="#aaaa00"  xml:space="preserve" font-size="6.21906" transform="translate(255.297, 117.297)" >nf=1</text>
<text fill="#cccccc"  xml:space="preserve" font-size="6.21906" transform="translate(215.599, 98.6099)" >XMB0_p</text>
<text fill="#ff0000"  xml:space="preserve" font-size="4.6643" transform="translate(357.702, 125.603)" >D</text>
<text fill="#ff0000"  xml:space="preserve" font-size="4.6643" transform="translate(357.702, 99.3231)" >S</text>
<text fill="#ff0000"  xml:space="preserve" font-size="4.6643" transform="translate(356.207, 109.158)" >B</text>
<text fill="#ff0000"  xml:space="preserve" font-size="4.6643" transform="translate(334.267, 109.158)" >G</text>
<text fill="#cccccc"  xml:space="preserve" font-size="6.21906" transform="translate(362.187, 104.184)" >pfet_03v3</text>
<text fill="#aaaa00"  xml:space="preserve" font-size="6.21906" transform="translate(362.934, 124.772)" >1 x 1.7u / 0.3u</text>
<text fill="#aaaa00"  xml:space="preserve" font-size="6.21906" transform="translate(362.934, 117.297)" >nf=1</text>
<text fill="#cccccc"  xml:space="preserve" font-size="6.21906" transform="translate(323.237, 98.6099)" >XMB1_p</text>
<text fill="#ff0000"  xml:space="preserve" font-size="4.6643" transform="translate(250.064, 251.18)" >D</text>
<text fill="#ff0000"  xml:space="preserve" font-size="4.6643" transform="translate(250.064, 224.9)" >S</text>
<text fill="#ff0000"  xml:space="preserve" font-size="4.6643" transform="translate(248.569, 234.735)" >B</text>
<text fill="#ff0000"  xml:space="preserve" font-size="4.6643" transform="translate(226.63, 234.735)" >G</text>
<text fill="#cccccc"  xml:space="preserve" font-size="6.21906" transform="translate(254.549, 229.761)" >pfet_03v3</text>
<text fill="#aaaa00"  xml:space="preserve" font-size="6.21906" transform="translate(255.297, 250.349)" >1 x 1.7u / 0.3u</text>
<text fill="#aaaa00"  xml:space="preserve" font-size="6.21906" transform="translate(255.297, 242.874)" >nf=1</text>
<text fill="#cccccc"  xml:space="preserve" font-size="6.21906" transform="translate(215.599, 224.187)" >XMA0_p</text>
<text fill="#ff0000"  xml:space="preserve" font-size="4.6643" transform="translate(357.702, 251.18)" >D</text>
<text fill="#ff0000"  xml:space="preserve" font-size="4.6643" transform="translate(357.702, 224.9)" >S</text>
<text fill="#ff0000"  xml:space="preserve" font-size="4.6643" transform="translate(356.207, 234.735)" >B</text>
<text fill="#ff0000"  xml:space="preserve" font-size="4.6643" transform="translate(334.267, 234.735)" >G</text>
<text fill="#cccccc"  xml:space="preserve" font-size="6.21906" transform="translate(362.187, 229.761)" >pfet_03v3</text>
<text fill="#aaaa00"  xml:space="preserve" font-size="6.21906" transform="translate(362.934, 250.349)" >1 x 1.7u / 0.3u</text>
<text fill="#aaaa00"  xml:space="preserve" font-size="6.21906" transform="translate(362.934, 242.874)" >nf=1</text>
<text fill="#cccccc"  xml:space="preserve" font-size="6.21906" transform="translate(323.237, 224.187)" >XMA1_p</text>
<text fill="#ff0000"  xml:space="preserve" font-size="4.6643" transform="translate(303.883, 197.361)" >D</text>
<text fill="#ff0000"  xml:space="preserve" font-size="4.6643" transform="translate(303.883, 171.081)" >S</text>
<text fill="#ff0000"  xml:space="preserve" font-size="4.6643" transform="translate(302.388, 180.916)" >B</text>
<text fill="#ff0000"  xml:space="preserve" font-size="4.6643" transform="translate(280.448, 180.916)" >G</text>
<text fill="#cccccc"  xml:space="preserve" font-size="6.21906" transform="translate(308.368, 175.942)" >pfet_03v3</text>
<text fill="#aaaa00"  xml:space="preserve" font-size="6.21906" transform="translate(309.115, 196.53)" >1 x 1.7u / 0.3u</text>
<text fill="#aaaa00"  xml:space="preserve" font-size="6.21906" transform="translate(309.115, 189.055)" >nf=1</text>
<text fill="#cccccc"  xml:space="preserve" font-size="6.21906" transform="translate(273.418, 170.368)" >XMC_p</text>
<text fill="#00ccee"  xml:space="preserve" font-size="10.2615" transform="translate(252.28, 81.0967) rotate(270)" >vdd</text>
<text fill="#00ccee"  xml:space="preserve" font-size="10.2615" transform="translate(185.944, 437.762) rotate(270)" >vss</text>
<text fill="#00ccee"  xml:space="preserve" font-size="8.39573" transform="translate(262.024, 119.273)" >vdd</text>
<text fill="#00ccee"  xml:space="preserve" font-size="8.39573" transform="translate(369.661, 119.273)" >vdd</text>
<text fill="#00ccee"  xml:space="preserve" font-size="8.39573" transform="translate(369.661, 244.851)" >vdd</text>
<text fill="#00ccee"  xml:space="preserve" font-size="8.39573" transform="translate(262.024, 244.851)" >vdd</text>
<text fill="#00ccee"  xml:space="preserve" font-size="8.39573" transform="translate(315.843, 191.032)" >vdd</text>
<text fill="#00ccee"  xml:space="preserve" font-size="8.39573" transform="translate(321.823, 400.327)" >vss</text>
<text fill="#00ccee"  xml:space="preserve" font-size="8.39573" transform="translate(321.823, 334.549)" >vss</text>
<text fill="#00ccee"  xml:space="preserve" font-size="8.39573" transform="translate(202.225, 334.549)" >vss</text>
<text fill="#00ccee"  xml:space="preserve" font-size="8.39573" transform="translate(435.44, 364.448)" >vss</text>
<text fill="#00ccee"  xml:space="preserve" font-size="8.39573" transform="translate(202.225, 400.327)" >vss</text>
<text fill="#00ccee"  xml:space="preserve" font-size="8.39573" transform="translate(364.578, 79.5083) rotate(270)" >vdd</text>
<text fill="#00ccee"  xml:space="preserve" font-size="8.39573" transform="translate(299.634, 436.351) rotate(270)" >vss</text>
<text fill="#00ccee"  xml:space="preserve" font-size="8.39573" transform="translate(413.251, 400.471) rotate(270)" >vss</text>
<text fill="#00ccee"  xml:space="preserve" font-size="10.2615" transform="translate(133.659, 330.263)" >A0</text>
<text fill="#00ccee"  xml:space="preserve" font-size="10.2615" transform="translate(133.659, 396.041)" >A1</text>
<text fill="#00ccee"  xml:space="preserve" font-size="10.2615" transform="translate(253.256, 396.041)" >B1</text>
<text fill="#00ccee"  xml:space="preserve" font-size="10.2615" transform="translate(253.256, 330.263)" >B0</text>
<text fill="#00ccee"  xml:space="preserve" font-size="10.2615" transform="translate(373.874, 360.162)" >C</text>
<text fill="#00ccee"  xml:space="preserve" font-size="8.39573" transform="translate(194.215, 233.726)" >A0</text>
<text fill="#00ccee"  xml:space="preserve" font-size="8.39573" transform="translate(194.215, 108.149)" >B0</text>
<text fill="#00ccee"  xml:space="preserve" font-size="8.39573" transform="translate(301.853, 108.149)" >B1</text>
<text fill="#00ccee"  xml:space="preserve" font-size="8.39573" transform="translate(301.853, 233.726)" >A1</text>
<text fill="#00ccee"  xml:space="preserve" font-size="8.39573" transform="translate(253.034, 179.907)" >C</text>
<text fill="#00ccee"  xml:space="preserve" font-size="10.2615" transform="translate(427.965, 276.444)" >Y</text>
<path class="l1" d="M248.569 110.903L260.529 110.903"/>
<path class="l1" d="M248.569 236.48L260.529 236.48"/>
<path class="l1" d="M356.207 236.48L368.167 236.48"/>
<path class="l1" d="M356.207 110.903L368.167 110.903"/>
<path class="l1" d="M302.388 182.661L314.348 182.661"/>
<path class="l1" d="M182.791 326.178L200.73 326.178"/>
<path class="l1" d="M182.791 391.956L200.73 391.956"/>
<path class="l1" d="M302.388 326.178L320.328 326.178"/>
<path class="l1" d="M302.388 391.956L320.328 391.956"/>
<path class="l1" d="M416.005 356.077L433.945 356.077"/>
<path class="l1" d="M356.207 81.0033L356.207 92.963"/>
<path class="l1" d="M302.388 409.896L302.388 421.856"/>
<path class="l1" d="M416.005 374.017L416.005 385.976"/>
<path class="l1" d="M182.791 344.117L182.791 374.017"/>
<path class="l1" d="M302.388 344.117L302.388 374.017"/>
<path class="l1" d="M182.791 272.359L182.791 308.238"/>
<path class="l1" d="M182.791 272.359L194.75 272.359"/>
<path class="l1" d="M194.75 272.359L416.005 272.359"/>
<path class="l1" d="M416.005 272.359L416.005 338.138"/>
<path class="l1" d="M302.388 272.359L302.388 308.238"/>
<path class="l1" d="M302.388 152.762L302.388 164.721"/>
<path class="l1" d="M248.569 128.842L248.569 152.762"/>
<path class="l1" d="M356.207 128.842L356.207 152.762"/>
<path class="l1" d="M248.569 206.58L356.207 206.58"/>
<path class="l1" d="M206.71 110.903L224.65 110.903"/>
<path class="l1" d="M314.348 110.903L332.287 110.903"/>
<path class="l1" d="M206.71 236.48L224.65 236.48"/>
<path class="l1" d="M314.348 236.48L332.287 236.48"/>
<path class="l1" d="M260.529 182.661L278.469 182.661"/>
<path class="l1" d="M248.569 152.762L356.207 152.762"/>
<path class="l1" d="M248.569 254.419L356.207 254.419"/>
<path class="l1" d="M302.388 254.419L302.388 272.359"/>
<path class="l1" d="M302.388 200.601L302.388 206.58"/>
<path class="l1" d="M248.569 206.58L248.569 218.54"/>
<path class="l1" d="M356.207 206.58L356.207 218.54"/>
<circle class="l1" cx="302.388" cy="206.58" r="2.21255"/>
<circle class="l1" cx="302.388" cy="254.419" r="2.21255"/>
<circle class="l1" cx="302.388" cy="272.359" r="2.21255"/>
<circle class="l1" cx="302.388" cy="152.762" r="2.21255"/>
<circle class="l1" cx="302.388" cy="272.359" r="2.21255"/>
</svg>
